<?xml version="1.0" encoding="utf-8" ?>
<svg baseProfile="full" height="140.0mm" version="1.1" viewBox="0 0 140.0 140.0" width="140.0mm" xmlns="http://www.w3.org/2000/svg" xmlns:ev="http://www.w3.org/2001/xml-events" xmlns:xlink="http://www.w3.org/1999/xlink"><defs /><circle cx="70.0" cy="70.0" fill="none" r="70.0" stroke="black" stroke-width="0.2" /><circle cx="70.0" cy="70.0" fill="none" r="50.0" stroke="black" stroke-width="0.2" /><circle cx="70.0" cy="70.0" fill="none" r="53.0" stroke="black" stroke-width="0.2" /><line stroke="black" stroke-width="0.2" x1="65.0" x2="75.0" y1="70.0" y2="70.0" /><line stroke="black" stroke-width="0.2" x1="70.0" x2="70.0" y1="65.0" y2="75.0" /><line stroke="black" stroke-width="0.2" x1="71.35743281381454" x2="71.46602743891971" y1="20.018429634954657" y2="16.019904005751016" /><line stroke="black" stroke-width="0.2" x1="72.70050898591664" x2="72.91654970478999" y1="20.072980749728472" y2="16.07881920970675" /><line stroke="black" stroke-width="0.2" x1="74.02856158067473" x2="74.35084650712872" y1="20.162557332957874" y2="16.1755619195945" /><line stroke="black" stroke-width="0.2" x1="75.34097175406187" x2="75.76824949438682" y1="20.28607820014284" y2="16.308964456154257" /><line stroke="black" stroke-width="0.2" x1="76.63716641812631" x2="77.43362638830148" y1="20.44247764528481" y2="14.49557496271899" /><text fill="black" style="font-size:2.4;text-anchor:start;font-family:sans-serif" transform="translate(77.43362638830148 14.49557496271899) rotate(7.6281476759999975) rotate(-90.0) translate(0.0 0.8) " x="0" y="0">105</text><line stroke="black" stroke-width="0.2" x1="77.9166161348735" x2="78.54994542566337" y1="20.630706010992412" y2="16.681162491871802" /><line stroke="black" stroke-width="0.2" x1="79.17883307854652" x2="79.91313972483023" y1="20.84973018063704" y2="16.917708595088015" /><line stroke="black" stroke-width="0.2" x1="80.42336906282704" x2="81.2572385878532" y1="21.098533995593755" y2="17.18641671524125" /><line stroke="black" stroke-width="0.2" x1="81.64981359937183" x2="82.58179868732157" y1="21.376118592816027" y2="17.486208080241312" /><line stroke="black" stroke-width="0.2" x1="82.85779219894206" x2="85.17219479475163" y1="21.68150271615616" y2="12.984173205064266" /><text fill="black" style="font-size:2.4;text-anchor:start;font-family:sans-serif" transform="translate(85.17219479475163 12.984173205064266) rotate(14.901366672000009) rotate(-90.0) translate(0.0 0.8) " x="0" y="0">110</text><line stroke="black" stroke-width="0.2" x1="84.04696442211548" x2="85.17072157588471" y1="22.013722893687387" y2="18.17482072518237" /><line stroke="black" stroke-width="0.2" x1="85.21702246988133" x2="86.43438426747184" y1="22.371833678472086" y2="18.561580372749845" /><line stroke="black" stroke-width="0.2" x1="86.36768939692874" x2="87.67710454868303" y1="22.75490772783202" y2="18.97530034605859" /><line stroke="black" stroke-width="0.2" x1="87.49871767443045" x2="88.8986150883849" y1="23.162035913688825" y2="19.41499878678394" /><line stroke="black" stroke-width="0.2" x1="88.60988776304123" x2="90.84307429460618" y1="23.592327386012897" y2="18.023406672334445" /><text fill="black" style="font-size:2.4;text-anchor:start;font-family:sans-serif" transform="translate(90.84307429460618 18.023406672334445) rotate(21.851222543999995) rotate(-90.0) translate(0.0 0.8) " x="0" y="0">115</text><line stroke="black" stroke-width="0.2" x1="89.70100652251747" x2="91.27708704431888" y1="24.04490950939467" y2="20.36850227014625" /><line stroke="black" stroke-width="0.2" x1="90.77190615682954" x2="92.4336586493759" y1="24.518927952258338" y2="20.88044218843902" /><line stroke="black" stroke-width="0.2" x1="91.82244272578579" x2="93.56823814384865" y1="25.013546555881973" y2="21.414630280352526" /><line stroke="black" stroke-width="0.2" x1="92.85249495446826" x2="94.6806945508257" y1="25.52794726622119" y2="21.970183047518887" /><line stroke="black" stroke-width="0.2" x1="93.86196309970619" x2="98.1571164576533" y1="26.0613300493943" y2="18.15236945828528" /><text fill="black" style="font-size:2.4;text-anchor:start;font-family:sans-serif" transform="translate(98.1571164576533 18.15236945828528) rotate(28.505248560000005) rotate(-90.0) translate(0.0 0.8) " x="0" y="0">120</text><line stroke="black" stroke-width="0.2" x1="94.8507678703715" x2="96.83882930000122" y1="26.612912793632802" y2="23.14194581712343" /><line stroke="black" stroke-width="0.2" x1="95.8188492369462" x2="97.8843571759019" y1="27.181931102864496" y2="23.756485591093664" /><line stroke="black" stroke-width="0.2" x1="96.76616546120583" x2="98.90745869810229" y1="27.76763816096296" y2="24.389049213839996" /><line stroke="black" stroke-width="0.2" x1="97.69269222383646" x2="99.90810760174338" y1="28.369304625122254" y2="25.038848995132028" /><line stroke="black" stroke-width="0.2" x1="98.59842145508257" x2="102.03023202969248" y1="28.9862182885134" y2="24.064564483135" /><text fill="black" style="font-size:2.4;text-anchor:start;font-family:sans-serif" transform="translate(102.03023202969248 24.064564483135) rotate(34.88760468) rotate(-90.0) translate(0.0 0.8) " x="0" y="0">125</text><line stroke="black" stroke-width="0.2" x1="99.48336068788748" x2="101.84202954291848" y1="29.61768403684688" y2="26.38709875979464" /><line stroke="black" stroke-width="0.2" x1="100.3475320578441" x2="102.77533462247163" y1="30.263023542321122" y2="27.084065425706825" /><line stroke="black" stroke-width="0.2" x1="101.19097145597547" x2="103.68624917245353" y1="30.921575010851285" y2="27.79530101171939" /><line stroke="black" stroke-width="0.2" x1="102.01372794201711" x2="104.57482617737848" y1="31.592693100732617" y2="28.520108548791228" /><line stroke="black" stroke-width="0.2" x1="102.81586274931283" x2="108.72271804418914" y1="32.27574848962192" y2="25.485383217753878" /><text fill="black" style="font-size:2.4;text-anchor:start;font-family:sans-serif" transform="translate(108.72271804418914 25.485383217753878) rotate(41.01960682799999) rotate(-90.0) translate(0.0 0.8) " x="0" y="0">130</text><line stroke="black" stroke-width="0.2" x1="103.597448770709" x2="106.2852446723657" y1="32.97012778715562" y2="30.007738010128065" /><line stroke="black" stroke-width="0.2" x1="104.35856973886246" x2="107.10725531797145" y1="33.675233166615854" y2="30.76925181994511" /><line stroke="black" stroke-width="0.2" x1="105.09931972376238" x2="107.90726530166337" y1="34.39048224239613" y2="31.541720821787834" /><line stroke="black" stroke-width="0.2" x1="105.81980236026627" x2="108.68538654908758" y1="35.11530767125123" y2="32.324532284951346" /><line stroke="black" stroke-width="0.2" x1="106.52013036012906" x2="110.90254600334455" y1="35.84915698728392" y2="31.751055825757987" /><text fill="black" style="font-size:2.4;text-anchor:start;font-family:sans-serif" transform="translate(110.90254600334455 31.751055825757987) rotate(46.92015666) rotate(-90.0) translate(0.0 0.8) " x="0" y="0">135</text><line stroke="black" stroke-width="0.2" x1="107.2004249359215" x2="110.17645893079523" y1="36.59149233223863" y2="33.91881171881772" /><line stroke="black" stroke-width="0.2" x1="107.86081521284243" x2="110.88968042986981" y1="37.341790137562654" y2="34.72913334856767" /><line stroke="black" stroke-width="0.2" x1="108.50143775392579" x2="111.58155277423987" y1="38.09954089859242" y2="35.54750417047981" /><line stroke="black" stroke-width="0.2" x1="109.12243610573807" x2="112.25223099419713" y1="38.86424895473948" y2="36.37338887111865" /><line stroke="black" stroke-width="0.2" x1="109.7239602294865" x2="116.87427307079406" y1="39.63543210111207" y2="34.169809879312254" /><text fill="black" style="font-size:2.4;text-anchor:start;font-family:sans-serif" transform="translate(116.87427307079406 34.169809879312254) rotate(52.606092852) rotate(-90.0) translate(0.0 0.8) " x="0" y="0">140</text><line stroke="black" stroke-width="0.2" x1="110.3061661746423" x2="113.53065946861369" y1="40.412621469584025" y2="38.04563118715075" /><line stroke="black" stroke-width="0.2" x1="110.86921555818427" x2="114.13875280283901" y1="41.19536114340835" y2="38.890990034881014" /><line stroke="black" stroke-width="0.2" x1="111.41327523801462" x2="114.7263372570558" y1="41.983207998408446" y2="39.74186463828113" /><line stroke="black" stroke-width="0.2" x1="111.93851685756638" x2="115.29359820617171" y1="42.77573134522032" y2="40.59778985283795" /><line stroke="black" stroke-width="0.2" x1="112.44511653735788" x2="117.53853052184081" y1="43.572512754139694" y2="40.40121428463647" /><text fill="black" style="font-size:2.4;text-anchor:start;font-family:sans-serif" transform="translate(117.53853052184081 40.40121428463647) rotate(58.09248079199999) rotate(-90.0) translate(0.0 0.8) " x="0" y="0">145</text><line stroke="black" stroke-width="0.2" x1="112.93325451088273" x2="116.36791487175334" y1="44.37314578213376" y2="42.32299744470447" /><line stroke="black" stroke-width="0.2" x1="113.40311473340358" x2="116.87536391207587" y1="45.17723562052356" y2="43.19141447016544" /><line stroke="black" stroke-width="0.2" x1="113.85488468462506" x2="117.36327545939506" y1="45.98439904357505" y2="44.06315096706106" /><line stroke="black" stroke-width="0.2" x1="114.28875493159677" x2="117.83185532612453" y1="46.79426392874032" y2="44.937805043039546" /><line stroke="black" stroke-width="0.2" x1="114.7049189581121" x2="122.75180437057229" y1="47.606469216565486" y2="43.57563367554728" /><text fill="black" style="font-size:2.4;text-anchor:start;font-family:sans-serif" transform="translate(122.75180437057229 43.57563367554728) rotate(63.39285327600001) rotate(-90.0) translate(0.0 0.8) " x="0" y="0">150</text><line stroke="black" stroke-width="0.2" x1="115.1035727959545" x2="118.71185861963087" y1="48.420664490303864" y2="46.69431764952817" /><line stroke="black" stroke-width="0.2" x1="115.484914846418" x2="119.12370803413143" y1="49.23650989322596" y2="47.57543068468402" /><line stroke="black" stroke-width="0.2" x1="115.8491455976785" x2="119.51707724549277" y1="50.0536758282916" y2="48.457969894554935" /><line stroke="black" stroke-width="0.2" x1="116.19646736211206" x2="119.89218475108103" y1="50.87184265901925" y2="49.3415900717408" /><line stroke="black" stroke-width="0.2" x1="116.52708411341443" x2="122.11033420702417" y1="51.69070061681063" y2="49.493584690827916" /><text fill="black" style="font-size:2.4;text-anchor:start;font-family:sans-serif" transform="translate(122.11033420702417 49.493584690827916) rotate(68.519411352) rotate(-90.0) translate(0.0 0.8) " x="0" y="0">155</text><line stroke="black" stroke-width="0.2" x1="116.8412012108115" x2="120.58849730767643" y1="52.509949424650884" y2="51.11074537862295" /><line stroke="black" stroke-width="0.2" x1="117.13902524474015" x2="120.91014726431936" y1="53.329298185866605" y2="51.99564204073593" /><line stroke="black" stroke-width="0.2" x1="117.42076385143466" x2="121.21442495954943" y1="54.14846519271816" y2="52.88034240813562" /><line stroke="black" stroke-width="0.2" x1="117.68662546884897" x2="121.5015555063569" y1="54.96717753069224" y2="53.76455173314761" /><line stroke="black" stroke-width="0.2" x1="117.9368192550333" x2="126.5654467209393" y1="55.785171133275355" y2="53.22650193726493" /><text fill="black" style="font-size:2.4;text-anchor:start;font-family:sans-serif" transform="translate(126.5654467209393 53.22650193726493) rotate(73.48319377199999) rotate(-90.0) translate(0.0 0.8) " x="0" y="0">160</text><line stroke="black" stroke-width="0.2" x1="118.17155482823395" x2="122.02527921449266" y1="56.6021902748826" y2="55.5303654968732" /><line stroke="black" stroke-width="0.2" x1="118.39104220480192" x2="122.26232558118608" y1="57.41798766758356" y2="56.411426680990246" /><line stroke="black" stroke-width="0.2" x1="118.59549158903613" x2="122.48313091615903" y1="58.23232405188186" y2="57.29090997603241" /><line stroke="black" stroke-width="0.2" x1="118.78511324752027" x2="122.6879223073219" y1="59.0449680316933" y2="58.16856547422877" /><line stroke="black" stroke-width="0.2" x1="118.96011740694638" x2="124.83533149577994" y1="59.855696007215386" y2="58.63837952808123" /><text fill="black" style="font-size:2.4;text-anchor:start;font-family:sans-serif" transform="translate(124.83533149577994 58.63837952808123) rotate(78.294219912) rotate(-90.0) translate(0.0 0.8) " x="0" y="0">165</text><line stroke="black" stroke-width="0.2" x1="119.12071408808032" x2="123.05037121512675" y1="60.664291806345474" y2="59.91743515085311" /><line stroke="black" stroke-width="0.2" x1="119.26711302357401" x2="123.20848206545992" y1="61.47054665747066" y2="60.78819039006831" /><line stroke="black" stroke-width="0.2" x1="119.39952352792362" x2="123.35148541015751" y1="62.27425892136418" y2="61.65619963507331" /><line stroke="black" stroke-width="0.2" x1="119.51815439540496" x2="123.47960674703737" y1="63.07523391926949" y2="62.52125263281104" /><line stroke="black" stroke-width="0.2" x1="119.6232138072885" x2="128.5553922926004" y1="63.87328379667112" y2="62.770474880071916" /><text fill="black" style="font-size:2.4;text-anchor:start;font-family:sans-serif" transform="translate(128.5553922926004 62.770474880071916) rotate(82.961611704) rotate(-90.0) translate(0.0 0.8) " x="0" y="0">170</text><line stroke="black" stroke-width="0.2" x1="119.71490923108988" x2="123.69210196957707" y1="64.66822729812175" y2="64.24168548197149" /><line stroke="black" stroke-width="0.2" x1="119.79344734198396" x2="123.77692312934269" y1="65.45988967082627" y2="65.09668084449238" /><line stroke="black" stroke-width="0.2" x1="119.85903393325563" x2="123.84775664791607" y1="66.2481024477654" y2="65.94795064358664" /><line stroke="black" stroke-width="0.2" x1="119.91187384243716" x2="123.90482374983213" y1="67.03270332850984" y2="66.79531959479063" /><line stroke="black" stroke-width="0.2" x1="119.95217087283605" x2="125.94643137757637" y1="67.81353593878382" y2="67.55116025143786" /><text fill="black" style="font-size:2.4;text-anchor:start;font-family:sans-serif" transform="translate(125.94643137757637 67.55116025143786) rotate(87.493697532) rotate(-90.0) translate(0.0 0.8) " x="0" y="0">175</text><line stroke="black" stroke-width="0.2" x1="119.98012773276052" x2="123.97853795138136" y1="68.59044978204302" y2="68.47768576460646" /><line stroke="black" stroke-width="0.2" x1="119.995945967636" x2="123.99562164504688" y1="69.36330006971791" y2="69.31236407529535" /><line stroke="black" stroke-width="0.2" x1="119.99982589837259" x2="123.9998119702424" y1="70.13194746086842" y2="70.14250325773789" /><line stroke="black" stroke-width="0.2" x1="119.9919665684679" x2="123.99132389394534" y1="70.89625811973306" y2="70.9679587693117" /><line stroke="black" stroke-width="0.2" x1="119.97256568991025" x2="128.9676275140941" y1="71.65610336863536" y2="71.95420197498973" /><text fill="black" style="font-size:2.4;text-anchor:start;font-family:sans-serif" transform="translate(128.9676275140941 71.95420197498973) rotate(91.898101836) rotate(-90.0) translate(0.0 0.8) " x="0" y="0">180</text><line stroke="black" stroke-width="0.2" x1="119.94181959334048" x2="123.93716516080772" y1="72.41135972145042" y2="72.60426849916645" /><line stroke="black" stroke-width="0.2" x1="119.89992318595003" x2="123.89191704082603" y1="73.16190860656779" y2="73.41486129509322" /><line stroke="black" stroke-width="0.2" x1="119.84706990584948" x2="123.83483549831745" y1="73.90763634456357" y2="74.22024725212866" /><line stroke="black" stroke-width="0.2" x1="119.78345168140154" x2="123.76612781591368" y1="74.6484340035712" y2="75.0203087238569" /><line stroke="black" stroke-width="0.2" x1="119.70925890173108" x2="125.6743699699388" y1="75.38419719555944" y2="76.03030085902657" /><text fill="black" style="font-size:2.4;text-anchor:start;font-family:sans-serif" transform="translate(125.6743699699388 76.03030085902657) rotate(96.18182222399999) rotate(-90.0) translate(0.0 0.8) " x="0" y="0">185</text><line stroke="black" stroke-width="0.2" x1="119.6246803777305" x2="123.59465480794893" y1="76.1148260325287" y2="76.60401211513098" /><line stroke="black" stroke-width="0.2" x1="119.52990331164514" x2="123.49229557657677" y1="76.84022499184661" y2="77.38744299119435" /><line stroke="black" stroke-width="0.2" x1="119.42511326574433" x2="123.37912232700387" y1="77.56030281591578" y2="78.16512704118904" /><line stroke="black" stroke-width="0.2" x1="119.31049415273895" x2="123.25533368495807" y1="78.274972290751" y2="78.93697007401107" /><line stroke="black" stroke-width="0.2" x1="119.1862281869252" x2="128.03974926057174" y1="78.98415030727585" y2="80.60129736258551" /><text fill="black" style="font-size:2.4;text-anchor:start;font-family:sans-serif" transform="translate(128.03974926057174 80.60129736258551) rotate(100.35129636) rotate(-90.0) translate(0.0 0.8) " x="0" y="0">190</text><line stroke="black" stroke-width="0.2" x1="119.05249588954352" x2="122.97669556070701" y1="79.68775758399826" y2="80.46277819071813" /><line stroke="black" stroke-width="0.2" x1="118.90947603230342" x2="122.82223411488768" y1="80.38571876403066" y2="81.21657626515312" /><line stroke="black" stroke-width="0.2" x1="118.75734566993236" x2="122.65793332352695" y1="81.07796205187256" y2="81.96419901602235" /><line stroke="black" stroke-width="0.2" x1="118.59628008565356" x2="122.48398249250585" y1="81.76441931574658" y2="82.7055728610063" /><line stroke="black" stroke-width="0.2" x1="118.42645278377178" x2="124.23762711782439" y1="82.44502594537764" y2="83.93842905882295" /><text fill="black" style="font-size:2.4;text-anchor:start;font-family:sans-serif" transform="translate(124.23762711782439 83.93842905882295) rotate(104.41246010399999) rotate(-90.0) translate(0.0 0.8) " x="0" y="0">195</text><line stroke="black" stroke-width="0.2" x1="118.24803550403865" x2="122.10787834436175" y1="83.11972065255299" y2="84.16929830475723" /><line stroke="black" stroke-width="0.2" x1="118.06119817682625" x2="121.90609403097234" y1="83.78844551818057" y2="84.89152115963502" /><line stroke="black" stroke-width="0.2" x1="117.86610893161509" x2="121.6953976461443" y1="84.45114582816039" y2="85.60723749441323" /><line stroke="black" stroke-width="0.2" x1="117.6629340938463" x2="121.475968821354" y1="85.10776997328406" y2="86.3163915711468" /><line stroke="black" stroke-width="0.2" x1="117.45183815422777" x2="125.99316902198876" y1="85.75826944131154" y2="88.59475794074763" /><text fill="black" style="font-size:2.4;text-anchor:start;font-family:sans-serif" transform="translate(125.99316902198876 88.59475794074763) rotate(108.370798452) rotate(-90.0) translate(0.0 0.8) " x="0" y="0">200</text><line stroke="black" stroke-width="0.2" x1="117.00653192326124" x2="120.76705447712213" y1="87.04071467243739" y2="88.40397184623238" /><line stroke="black" stroke-width="0.2" x1="116.5314697866599" x2="120.25398736959269" y1="88.29815071238504" y2="89.76200276937584" /><line stroke="black" stroke-width="0.2" x1="116.02790209215802" x2="119.71013425953066" y1="89.53029003867366" y2="91.09271324176756" /><line stroke="black" stroke-width="0.2" x1="115.49704998559633" x2="119.13681398444405" y1="90.73688603932973" y2="92.39583692247612" /><line stroke="black" stroke-width="0.2" x1="114.94010548090755" x2="120.33291813861645" y1="91.91773070746385" y2="94.54785839235952" /><text fill="black" style="font-size:2.4;text-anchor:start;font-family:sans-serif" transform="translate(120.33291813861645 94.54785839235952) rotate(115.99894609200001) rotate(-90.0) translate(0.0 0.8) " x="0" y="0">210</text><line stroke="black" stroke-width="0.2" x1="114.35823157525913" x2="117.90689010127986" y1="93.07265245947427" y2="94.91846465623222" /><line stroke="black" stroke-width="0.2" x1="113.75256249313581" x2="117.25276749258668" y1="94.20151390480035" y2="96.13763501718438" /><line stroke="black" stroke-width="0.2" x1="113.12420384334595" x2="116.57414015081363" y1="95.30420998327247" y2="97.32854678193426" /><line stroke="black" stroke-width="0.2" x1="112.47423298648204" x2="115.87217162540061" y1="96.38066587882194" y2="98.4911191491277" /><line stroke="black" stroke-width="0.2" x1="111.8036991987779" x2="116.82014310263125" y1="97.43083544659359" y2="100.72253570018484" /><text fill="black" style="font-size:2.4;text-anchor:start;font-family:sans-serif" transform="translate(116.82014310263125 100.72253570018484) rotate(123.272165088) rotate(-90.0) translate(0.0 0.8) " x="0" y="0">220</text><line stroke="black" stroke-width="0.2" x1="111.11362409352915" x2="114.40271402101149" y1="98.45469932886269" y2="100.73107527517169" /><line stroke="black" stroke-width="0.2" x1="110.40500201244346" x2="113.63740217343894" y1="99.45226328101866" y2="101.80844434350016" /><line stroke="black" stroke-width="0.2" x1="109.6788002677551" x2="112.8531042891755" y1="100.42355681559272" y2="102.85744136084013" /><line stroke="black" stroke-width="0.2" x1="108.93595966612111" x2="112.0508364394108" y1="101.36863154296327" y2="103.87812206640032" /><line stroke="black" stroke-width="0.2" x1="108.17739490730155" x2="112.75868229617774" y1="102.28755980392364" y2="106.16206698039448" /><text fill="black" style="font-size:2.4;text-anchor:start;font-family:sans-serif" transform="translate(112.75868229617774 106.16206698039448) rotate(130.22202096) rotate(-90.0) translate(0.0 0.8) " x="0" y="0">230</text><line stroke="black" stroke-width="0.2" x1="107.40399494552457" x2="110.39631454116655" y1="103.18043342265395" y2="105.83486809646627" /><line stroke="black" stroke-width="0.2" x1="106.61662351722504" x2="109.54595339860303" y1="104.04736233833397" y2="106.7711513254007" /><line stroke="black" stroke-width="0.2" x1="105.8161195124494" x2="108.68140907344534" y1="104.88847349870645" y2="107.67955137860295" /><line stroke="black" stroke-width="0.2" x1="105.00329751621663" x2="107.80356131751395" y1="105.70390963173674" y2="108.56022240227567" /><line stroke="black" stroke-width="0.2" x1="104.1789482256874" x2="108.28042201276989" y1="106.49382822047832" y2="110.87308760693571" /><text fill="black" style="font-size:2.4;text-anchor:start;font-family:sans-serif" transform="translate(108.28042201276989 110.87308760693571) rotate(136.876047012) rotate(-90.0) translate(0.0 0.8) " x="0" y="0">240</text><line stroke="black" stroke-width="0.2" x1="103.343838883502" x2="106.01134599418216" y1="107.25840050929534" y2="110.23907255003897" /><line stroke="black" stroke-width="0.2" x1="102.49871387273569" x2="105.09861098255455" y1="107.99781041873409" y2="111.03763525223282" /><line stroke="black" stroke-width="0.2" x1="101.64429503216726" x2="104.17583863474064" y1="108.71225376953859" y2="111.80923407110168" /><line stroke="black" stroke-width="0.2" x1="100.78128229591958" x2="103.24378487959314" y1="109.40193726479585" y2="112.55409224597952" /><line stroke="black" stroke-width="0.2" x1="99.91035401961825" x2="105.29421774314955" y1="110.06707778739431" y2="117.27915178912528" /><text fill="black" style="font-size:2.4;text-anchor:start;font-family:sans-serif" transform="translate(105.29421774314955 117.27915178912528) rotate(143.258403132) rotate(-90.0) translate(0.0 0.8) " x="0" y="0">250</text><line stroke="black" stroke-width="0.2" x1="99.03216759242655" x2="101.35474099982066" y1="110.70790150431803" y2="113.96453362466346" /><line stroke="black" stroke-width="0.2" x1="98.14735979720083" x2="100.39914858097691" y1="111.32464321015877" y2="114.63061466697147" /><line stroke="black" stroke-width="0.2" x1="97.25654731135393" x2="99.43707109626223" y1="111.91754559446349" y2="115.27094924202058" /><line stroke="black" stroke-width="0.2" x1="96.36032720385288" x2="98.46915338016109" y1="112.48685855303748" y2="115.88580723728049" /><line stroke="black" stroke-width="0.2" x1="95.45927740014146" x2="98.51439068815844" y1="113.03283855688173" y2="118.19677918370752" /><text fill="black" style="font-size:2.4;text-anchor:start;font-family:sans-serif" transform="translate(98.51439068815844 118.19677918370752) rotate(149.39040527999998) rotate(-90.0) translate(0.0 0.8) " x="0" y="0">260</text><line stroke="black" stroke-width="0.2" x1="94.55395708428958" x2="96.51827365103276" y1="113.55574808797186" y2="117.04020793500962" /><line stroke="black" stroke-width="0.2" x1="93.64490714409436" x2="95.53649971562191" y1="114.05585507225067" y2="117.58032347803072" /><line stroke="black" stroke-width="0.2" x1="92.73265074738379" x2="94.5512628071745" y1="114.53343227281579" y2="118.09610685464105" /><line stroke="black" stroke-width="0.2" x1="91.81769357859156" x2="93.56310906487889" y1="114.9887568944807" y2="118.58785744603915" /><line stroke="black" stroke-width="0.2" x1="90.90052442446218" x2="93.40858735539763" y1="115.42211002124913" y2="120.87276322379901" /><text fill="black" style="font-size:2.4;text-anchor:start;font-family:sans-serif" transform="translate(93.40858735539763 120.87276322379901) rotate(155.290955112) rotate(-90.0) translate(0.0 0.8) " x="0" y="0">270</text><line stroke="black" stroke-width="0.2" x1="89.98161561586528" x2="91.58014486513451" y1="115.83377616321624" y2="119.50047825627354" /><line stroke="black" stroke-width="0.2" x1="89.06142325719352" x2="90.586337117769" y1="116.22404291502554" y2="119.92196634822757" /><line stroke="black" stroke-width="0.2" x1="88.14038784642614" x2="89.59161887414024" y1="116.59320045651762" y2="120.32065649303904" /><line stroke="black" stroke-width="0.2" x1="87.21893463060053" x2="88.59644940104857" y1="116.9415411995293" y2="120.69686449549164" /><line stroke="black" stroke-width="0.2" x1="86.29747388947818" x2="88.25317075621557" y1="117.26935947124497" y2="122.94168260779438" /><text fill="black" style="font-size:2.4;text-anchor:start;font-family:sans-serif" transform="translate(88.25317075621557 122.94168260779438) rotate(160.97689126799997) rotate(-90.0) translate(0.0 0.8) " x="0" y="0">280</text><line stroke="black" stroke-width="0.2" x1="85.37640144403113" x2="86.60651355955362" y1="117.57695112795687" y2="121.38310721819343" /><line stroke="black" stroke-width="0.2" x1="84.4560990399354" x2="85.61258696313024" y1="117.86461323929797" y2="121.69378229844182" /><line stroke="black" stroke-width="0.2" x1="83.53693463048975" x2="84.61988940092893" y1="118.1326438169549" y2="121.9832553223113" /><line stroke="black" stroke-width="0.2" x1="82.61926282926609" x2="83.62880385560737" y1="118.38134150316529" y2="122.2518488234185" /><line stroke="black" stroke-width="0.2" x1="81.70342529499855" x2="83.10783633039838" y1="118.61100530090268" y2="124.444325937011" /><text fill="black" style="font-size:2.4;text-anchor:start;font-family:sans-serif" transform="translate(83.10783633039838 124.444325937011) rotate(166.463279244) rotate(-90.0) translate(0.0 0.8) " x="0" y="0">290</text><line stroke="black" stroke-width="0.2" x1="80.78975095414141" x2="81.65293103047273" y1="118.82193435688107" y2="122.72768910543155" /><line stroke="black" stroke-width="0.2" x1="79.87855642628628" x2="80.66884094038917" y1="119.01442770177653" y2="122.93558191791865" /><line stroke="black" stroke-width="0.2" x1="78.97014641165651" x2="79.68775812458902" y1="119.18878401987028" y2="123.1238867414599" /><line stroke="black" stroke-width="0.2" x1="78.06481397741645" x2="78.70999909560976" y1="119.34530145322519" y2="123.2929255694832" /><line stroke="black" stroke-width="0.2" x1="77.1628408339584" x2="78.45215218407091" y1="119.48427741401684" y2="128.39144734853988" /><text fill="black" style="font-size:2.4;text-anchor:start;font-family:sans-serif" transform="translate(78.45215218407091 128.39144734853988) rotate(171.763651692) rotate(-90.0) translate(0.0 0.8) " x="0" y="0">300</text><line stroke="black" stroke-width="0.2" x1="76.26449766394842" x2="76.76565747706428" y1="119.60600839634635" y2="123.57448906805405" /><line stroke="black" stroke-width="0.2" x1="75.3700445679717" x2="75.79964813340943" y1="119.71078978791222" y2="123.6876529709452" /><line stroke="black" stroke-width="0.2" x1="74.47973112771055" x2="74.8381096179274" y1="119.79891574144382" y2="123.78282900075934" /><line stroke="black" stroke-width="0.2" x1="73.59379692807812" x2="73.88130068232437" y1="119.87067899717965" y2="123.86033331695403" /><line stroke="black" stroke-width="0.2" x1="72.71247169678274" x2="73.03796830039667" y1="119.92637076029213" y2="125.91753525152718" /><text fill="black" style="font-size:2.4;text-anchor:start;font-family:sans-serif" transform="translate(73.03796830039667 125.91753525152718) rotate(176.89020976799998) rotate(-90.0) translate(0.0 0.8) " x="0" y="0">310</text><line stroke="black" stroke-width="0.2" x1="71.83597562291611" x2="71.9828536727494" y1="119.96628056511769" y2="123.96358301032711" /><line stroke="black" stroke-width="0.2" x1="70.96451966788494" x2="71.04168124131574" y1="119.99069615248685" y2="123.98995184468579" /><line stroke="black" stroke-width="0.2" x1="71.00278756691787" x2="71.16394985445825" y1="125.99102086134558" y2="134.98957778549038" /><text fill="black" style="font-size:2.4;text-anchor:start;font-family:sans-serif" transform="translate(71.16394985445825 134.98957778549038) rotate(178.973954172) rotate(-90.0) translate(0.0 0.8) " x="0" y="0">π</text><line stroke="black" stroke-width="0.2" x1="70.0983058371665" x2="70.10617030413984" y1="119.99990335953039" y2="123.99989562829282" /><line stroke="black" stroke-width="0.2" x1="69.23752731859597" x2="69.17652950408365" y1="119.99418601607704" y2="123.9937208973632" /><line stroke="black" stroke-width="0.2" x1="68.38236892727141" x2="68.18825319854399" y1="119.9738258462622" y2="125.97068494781365" /><text fill="black" style="font-size:2.4;text-anchor:start;font-family:sans-serif" transform="translate(68.18825319854399 125.97068494781365) rotate(181.853992188) rotate(-90.0) translate(0.0 0.8) " x="0" y="0">320</text><line stroke="black" stroke-width="0.2" x1="67.53300716614373" x2="67.33564773943523" y1="119.93910237837383" y2="123.93423056864373" /><line stroke="black" stroke-width="0.2" x1="66.6896106248635" x2="66.4247794748526" y1="119.89029286529578" y2="123.88151629451944" /><line stroke="black" stroke-width="0.2" x1="65.85234008896964" x2="65.52052729608721" y1="119.82767220393134" y2="123.81388598024584" /><line stroke="black" stroke-width="0.2" x1="65.02134889310318" x2="64.62305680455144" y1="119.75151287303528" y2="123.7316339028781" /><line stroke="black" stroke-width="0.2" x1="64.19678298551986" x2="63.50039694378225" y1="119.66208485638563" y2="125.62153503915192" /><text fill="black" style="font-size:2.4;text-anchor:start;font-family:sans-serif" transform="translate(63.50039694378225 125.62153503915192) rotate(186.66501836400002) rotate(-90.0) translate(0.0 0.8) " x="0" y="0">330</text><line stroke="black" stroke-width="0.2" x1="63.37878133021591" x2="62.84908383663318" y1="119.55965560137503" y2="123.52442804948501" /><line stroke="black" stroke-width="0.2" x1="62.56747595865423" x2="61.972874035346564" y1="119.44448994958708" y2="123.40004914555404" /><line stroke="black" stroke-width="0.2" x1="61.76299226518933" x2="61.10403164640448" y1="119.31685009787901" y2="123.26219810570933" /><line stroke="black" stroke-width="0.2" x1="60.96544920238905" x2="60.24268513858017" y1="119.1769955557005" y2="123.11115520015655" /><line stroke="black" stroke-width="0.2" x1="60.174959470367114" x2="58.99595460681116" y1="119.02518310614526" y2="124.9082050788827" /><text fill="black" style="font-size:2.4;text-anchor:start;font-family:sans-serif" transform="translate(58.99595460681116 124.9082050788827) rotate(191.33241012000002) rotate(-90.0) translate(0.0 0.8) " x="0" y="0">340</text><line stroke="black" stroke-width="0.2" x1="59.3916296082159" x2="58.54295997687317" y1="118.86166675043657" y2="122.77060009047149" /><line stroke="black" stroke-width="0.2" x1="58.61556041831097" x2="57.70480525177585" y1="118.68669772546576" y2="122.58163354350302" /><line stroke="black" stroke-width="0.2" x1="57.846846892322844" x2="56.874594643708676" y1="118.50052442542614" y2="122.38056637946022" /><line stroke="black" stroke-width="0.2" x1="57.085578531975" x2="56.052424814533005" y1="118.3033924082586" y2="122.16766380091929" /><line stroke="black" stroke-width="0.2" x1="56.331839419405625" x2="53.871570514898636" y1="118.09554435021072" y2="126.75274233324865" /><text fill="black" style="font-size:2.4;text-anchor:start;font-family:sans-serif" transform="translate(53.871570514898636 126.75274233324865) rotate(195.864495984) rotate(-90.0) translate(0.0 0.8) " x="0" y="0">350</text><line stroke="black" stroke-width="0.2" x1="55.58570858577485" x2="54.432565272636836" y1="117.87722008456419" y2="121.7073976913293" /><line stroke="black" stroke-width="0.2" x1="54.847259920204365" x2="53.635040713820715" y1="117.64865651908934" y2="121.46054904061648" /><line stroke="black" stroke-width="0.2" x1="54.116562438335755" x2="52.845887433402616" y1="117.41008765257362" y2="121.2028946647795" /><line stroke="black" stroke-width="0.2" x1="53.39368054305376" x2="52.065174986498064" y1="117.16174460400981" y2="120.9346841723306" /><line stroke="black" stroke-width="0.2" x1="52.67867392339194" x2="50.60011479419897" y1="116.90385552327035" y2="122.53231818606278" /><text fill="black" style="font-size:2.4;text-anchor:start;font-family:sans-serif" transform="translate(50.60011479419897 122.53231818606278) rotate(200.268900288) rotate(-90.0) translate(0.0 0.8) " x="0" y="0">360</text><line stroke="black" stroke-width="0.2" x1="51.97159801380027" x2="50.529325854904286" y1="116.63664569653342" y2="120.36757735225609" /><line stroke="black" stroke-width="0.2" x1="51.27250382668379" x2="49.77430413281849" y1="116.36033743490685" y2="120.06916442969941" /><line stroke="black" stroke-width="0.2" x1="50.581438283518466" x2="49.02795334619994" y1="116.07515014477107" y2="119.76116215635275" /><line stroke="black" stroke-width="0.2" x1="49.898444333557805" x2="48.29031988024242" y1="115.78130032872511" y2="119.4438043550231" /><line stroke="black" stroke-width="0.2" x1="49.223561011689476" x2="46.73038833309221" y1="115.47900156077539" y2="120.93648174806845" /><text fill="black" style="font-size:2.4;text-anchor:start;font-family:sans-serif" transform="translate(46.73038833309221 120.93648174806845) rotate(204.552620676) rotate(-90.0) translate(0.0 0.8) " x="0" y="0">370</text><line stroke="black" stroke-width="0.2" x1="48.55682360863893" x2="46.84136949733004" y1="115.16846451064033" y2="118.78194167149155" /><line stroke="black" stroke-width="0.2" x1="47.89826377922756" x2="46.13012488156576" y1="114.84989694556049" y2="118.43788870120531" /><line stroke="black" stroke-width="0.2" x1="47.247909675440376" x2="45.4277424494756" y1="114.52350374648293" y2="118.08538404620157" /><line stroke="black" stroke-width="0.2" x1="46.60578604747481" x2="44.73424893127279" y1="114.18948691197349" y2="117.72464586493136" /><line stroke="black" stroke-width="0.2" x1="45.97191436944034" x2="43.08854409377319" y1="113.84804557708921" y2="119.10981104633991" /><text fill="black" style="font-size:2.4;text-anchor:start;font-family:sans-serif" transform="translate(43.08854409377319 119.10981104633991) rotate(208.722094776) rotate(-90.0) translate(0.0 0.8) " x="0" y="0">380</text><line stroke="black" stroke-width="0.2" x1="45.34631296100933" x2="43.37401799789008" y1="113.49937603441575" y2="116.97932611716902" /><line stroke="black" stroke-width="0.2" x1="44.72899705086971" x2="42.70731681493928" y1="113.14367172535327" y2="116.59516546338153" /><line stroke="black" stroke-width="0.2" x1="44.11997894651816" x2="42.04957726223961" y1="112.78112329370673" y2="116.20361315720328" /><line stroke="black" stroke-width="0.2" x1="43.51926806431105" x2="41.400809509455925" y1="112.41191856247701" y2="115.80487204747519" /><line stroke="black" stroke-width="0.2" x1="42.92687106563511" x2="39.67809559351133" y1="112.03624257356091" y2="117.08059168238822" /><text fill="black" style="font-size:2.4;text-anchor:start;font-family:sans-serif" transform="translate(39.67809559351133 117.08059168238822) rotate(212.78325851999998) rotate(-90.0) translate(0.0 0.8) " x="0" y="0">390</text><line stroke="black" stroke-width="0.2" x1="42.34279193576755" x2="40.13021529062895" y1="111.6542775965657" y2="114.98661980429097" /><line stroke="black" stroke-width="0.2" x1="41.76703211253252" x2="39.50839468153512" y1="111.26620317239315" y2="114.5674994261846" /><line stroke="black" stroke-width="0.2" x1="41.19959053302934" x2="38.895557775671676" y1="110.8721961060918" y2="114.14197179457915" /><line stroke="black" stroke-width="0.2" x1="40.64046373084234" x2="38.29170082930973" y1="110.47243049360907" y2="113.71022493309778" /><line stroke="black" stroke-width="0.2" x1="40.089645980381746" x2="34.70578225685046" y1="110.06707778739431" y2="117.27915178912528" /><text fill="black" style="font-size:4.5;text-anchor:start;font-family:monospace" transform="translate(34.70578225685046 117.27915178912528) rotate(216.741596868) rotate(-90.0) translate(0.0 0.8) " x="0" y="0">400</text><line stroke="black" stroke-width="0.2" x1="39.547129235635296" x2="37.11089957448611" y1="109.65630671417728" y2="112.82881125131145" /><line stroke="black" stroke-width="0.2" x1="39.012903395655286" x2="36.533935667307716" y1="109.24028343466709" y2="112.37950610944046" /><line stroke="black" stroke-width="0.2" x1="38.48695621462262" x2="35.965912711792434" y1="108.81917144119498" y2="111.92470515649057" /><line stroke="black" stroke-width="0.2" x1="37.96927350951606" x2="35.40681539027734" y1="108.39313168382868" y2="111.46458221853499" /><line stroke="black" stroke-width="0.2" x1="37.459839142261075" x2="33.5550198393324" y1="107.96232252316072" y2="112.51780122594" /><text fill="black" style="font-size:2.4;text-anchor:start;font-family:sans-serif" transform="translate(33.5550198393324 112.51780122594) rotate(220.602188412) rotate(-90.0) translate(0.0 0.8) " x="0" y="0">410</text><line stroke="black" stroke-width="0.2" x1="36.958635123442775" x2="34.31532593331819" y1="107.52689977994731" y2="110.5290517623431" /><line stroke="black" stroke-width="0.2" x1="36.46564168839632" x2="33.78289302346802" y1="107.08701676636956" y2="110.05397810767911" /><line stroke="black" stroke-width="0.2" x1="35.980837370647635" x2="33.259304360299446" y1="106.64282431797085" y2="109.57425026340852" /><line stroke="black" stroke-width="0.2" x1="35.504199027277664" x2="32.744534949459876" y1="106.19447078284651" y2="109.09002844547422" /><line stroke="black" stroke-width="0.2" x1="35.03570197744749" x2="30.83998621474118" y1="105.74210211767252" y2="110.03115437179322" /><text fill="black" style="font-size:2.4;text-anchor:start;font-family:sans-serif" transform="translate(30.83998621474118 110.03115437179322) rotate(224.369744544) rotate(-90.0) translate(0.0 0.8) " x="0" y="0">420</text><line stroke="black" stroke-width="0.2" x1="34.575319955989855" x2="31.741345552469042" y1="105.28586181148916" y2="108.10873075640829" /><line stroke="black" stroke-width="0.2" x1="34.12302529202509" x2="31.2528673153871" y1="104.82589102669634" y2="107.61196230883205" /><line stroke="black" stroke-width="0.2" x1="33.67878886069951" x2="30.773091969555473" y1="104.3623285208432" y2="107.11131480251066" /><line stroke="black" stroke-width="0.2" x1="33.24258021174929" x2="30.301986628689235" y1="103.89531074515051" y2="106.60693560476255" /><line stroke="black" stroke-width="0.2" x1="32.81436758559837" x2="28.352091695870172" y1="103.42497183156634" y2="107.4359684513543" /><text fill="black" style="font-size:2.4;text-anchor:start;font-family:sans-serif" transform="translate(28.352091695870172 107.4359684513543) rotate(228.048644016) rotate(-90.0) translate(0.0 0.8) " x="0" y="0">430</text><line stroke="black" stroke-width="0.2" x1="32.39411801365745" x2="29.385647454750043" y1="102.95144367139741" y2="105.58755916510921" /><line stroke="black" stroke-width="0.2" x1="31.981797290526565" x2="28.940341073768685" y1="102.47485585405094" y2="105.07284432237502" /><line stroke="black" stroke-width="0.2" x1="31.577370092067106" x2="28.50355969943248" y1="101.99533576879637" y2="104.55496263030008" /><line stroke="black" stroke-width="0.2" x1="31.180800026690413" x2="28.075264028825643" y1="101.51300863821481" y2="104.034049329272" /><line stroke="black" stroke-width="0.2" x1="30.792049606702093" x2="26.087095559506345" y1="101.02799745321458" y2="104.75135714760033" /><text fill="black" style="font-size:2.4;text-anchor:start;font-family:sans-serif" transform="translate(26.087095559506345 104.75135714760033) rotate(231.64296354) rotate(-90.0) translate(0.0 0.8) " x="0" y="0">440</text><line stroke="black" stroke-width="0.2" x1="30.411080397785547" x2="27.24396682960839" y1="100.54042312623386" y2="102.98365697633257" /><line stroke="black" stroke-width="0.2" x1="30.037852949780508" x2="26.840881185762946" y1="100.05040437559258" y2="102.45443672563998" /><line stroke="black" stroke-width="0.2" x1="29.672326959612768" x2="26.446113116381788" y1="99.55805790554624" y2="101.92270253798993" /><line stroke="black" stroke-width="0.2" x1="29.31446122049156" x2="26.059618118130885" y1="99.06349831353953" y2="101.38857817862268" /><line stroke="black" stroke-width="0.2" x1="28.964213704354584" x2="21.577772171138406" y1="98.56683817117533" y2="103.70886904198689" /><text fill="black" style="font-size:2.4;text-anchor:start;font-family:sans-serif" transform="translate(21.577772171138406 103.70886904198689) rotate(235.15650496799998) rotate(-90.0) translate(0.0 0.8) " x="0" y="0">450</text><line stroke="black" stroke-width="0.2" x1="28.62154160366544" x2="25.311264931958675" y1="98.06818805592569" y2="100.31364310039974" /><line stroke="black" stroke-width="0.2" x1="28.286401319632503" x2="24.9493134252031" y1="97.56765650419425" y2="99.77306902452978" /><line stroke="black" stroke-width="0.2" x1="27.958748590578537" x2="24.595448477824824" y1="97.06535017194157" y2="99.2305781856969" /><line stroke="black" stroke-width="0.2" x1="27.63853844243316" x2="24.249621517827812" y1="96.56137373530945" y2="98.6862836341342" /><line stroke="black" stroke-width="0.2" x1="27.32572524545305" x2="22.204812274907418" y1="96.0558299459725" y2="99.1825295394892" /><text fill="black" style="font-size:2.4;text-anchor:start;font-family:sans-serif" transform="translate(22.204812274907418 99.1825295394892) rotate(238.59281941199998) rotate(-90.0) translate(0.0 0.8) " x="0" y="0">460</text><line stroke="black" stroke-width="0.2" x1="27.020262783667782" x2="23.581883806361205" y1="95.54881971471534" y2="97.59272529189256" /><line stroke="black" stroke-width="0.2" x1="26.722104256161273" x2="23.259872596654176" y1="95.04044208845815" y2="97.0436774555348" /><line stroke="black" stroke-width="0.2" x1="26.43120231163482" x2="22.945698496565605" y1="94.53079427964583" y2="96.4932578220175" /><line stroke="black" stroke-width="0.2" x1="26.14750906655059" x2="22.639309791874638" y1="94.01997166800446" y2="95.94156940144482" /><line stroke="black" stroke-width="0.2" x1="25.870976182992365" x2="20.575493324951452" y1="93.50806791205889" y2="96.32903606150596" /><text fill="black" style="font-size:2.4;text-anchor:start;font-family:sans-serif" transform="translate(20.575493324951452 96.32903606150596) rotate(241.955228844) rotate(-90.0) translate(0.0 0.8) " x="0" y="0">470</text><line stroke="black" stroke-width="0.2" x1="25.601554823886772" x2="22.049679209797716" y1="92.99517484046747" y2="94.83478882770487" /><line stroke="black" stroke-width="0.2" x1="25.339195743790725" x2="21.766331403293982" y1="92.48138259068067" y2="94.27989319793511" /><line stroke="black" stroke-width="0.2" x1="25.08384931553657" x2="21.49055726077949" y1="91.96677963859462" y2="93.72412200968219" /><line stroke="black" stroke-width="0.2" x1="24.835465488310042" x2="21.222302727374846" y1="91.45145268606224" y2="93.16756890094722" /><line stroke="black" stroke-width="0.2" x1="24.59399388585306" x2="19.145273152155426" y1="90.93548682887624" y2="93.44774524834139" /><text fill="black" style="font-size:2.4;text-anchor:start;font-family:sans-serif" transform="translate(19.145273152155426 93.44774524834139) rotate(245.24684546400002) rotate(-90.0) translate(0.0 0.8) " x="0" y="0">480</text><line stroke="black" stroke-width="0.2" x1="24.3593838168686" x2="20.70813452221809" y1="90.41896555715014" y2="92.05248280172216" /><line stroke="black" stroke-width="0.2" x1="24.131584248777074" x2="20.462110988679235" y1="89.90197066807616" y2="91.49412832152225" /><line stroke="black" stroke-width="0.2" x1="23.910543885664012" x2="20.223387396517133" y1="89.38458240676587" y2="90.93534899930715" /><line stroke="black" stroke-width="0.2" x1="23.696211201850836" x2="19.991908097998902" y1="88.86687952302648" y2="90.37622988486861" /><line stroke="black" stroke-width="0.2" x1="23.488534391816266" x2="17.907158518834223" y1="88.3489391240677" y2="90.55081181895581" /><text fill="black" style="font-size:2.4;text-anchor:start;font-family:sans-serif" transform="translate(17.907158518834223 90.55081181895581) rotate(248.47058879999997) rotate(-90.0) translate(0.0 0.8) " x="0" y="0">490</text><line stroke="black" stroke-width="0.2" x1="23.287461442904267" x2="19.550458358336606" y1="87.83083681580436" y2="89.25730376106871" /><line stroke="black" stroke-width="0.2" x1="23.092940177529876" x2="19.340375391732266" y1="87.31264678814908" y2="88.69765853120101" /><line stroke="black" stroke-width="0.2" x1="22.904918195593943" x2="19.137311651241454" y1="86.79444163514529" y2="88.13799696595692" /><line stroke="black" stroke-width="0.2" x1="22.723342972858426" x2="18.941210410687106" y1="86.27629258578334" y2="87.57839599264601" /><line stroke="black" stroke-width="0.2" x1="22.548161845772228" x2="14.00683097801123" y1="85.75826944131155" y2="88.59475794074763" /><text fill="black" style="font-size:2.4;text-anchor:start;font-family:sans-serif" transform="translate(14.00683097801123 88.59475794074763) rotate(251.629201548) rotate(-90.0) translate(0.0 0.8) " x="0" y="0">500</text><line stroke="black" stroke-width="0.2" x1="22.13783640630308" x2="18.308863318807326" y1="84.46420741451786" y2="85.62134400767928" /><line stroke="black" stroke-width="0.2" x1="21.766316295686885" x2="16.942947925255567" y1="83.17238612827148" y2="84.48962474109862" /><text fill="black" style="font-size:2.4;text-anchor:start;font-family:sans-serif" transform="translate(16.942947925255567 84.48962474109862) rotate(254.72526339599997) rotate(-90.0) translate(0.0 0.8) " x="0" y="0">510</text><line stroke="black" stroke-width="0.2" x1="21.432771553874453" x2="17.54739327818441" y1="81.88378395385298" y2="82.83448667016123" /><line stroke="black" stroke-width="0.2" x1="21.136371135246023" x2="15.272735671475544" y1="80.59932894892793" y2="81.87124842279928" /><text fill="black" style="font-size:2.4;text-anchor:start;font-family:sans-serif" transform="translate(15.272735671475544 81.87124842279928) rotate(257.76120369599994) rotate(-90.0) translate(0.0 0.8) " x="0" y="0">520</text><line stroke="black" stroke-width="0.2" x1="20.87628426311742" x2="16.94638700416681" y1="79.31990086867636" y2="80.06549293817046" /><line stroke="black" stroke-width="0.2" x1="20.65168163456702" x2="15.716849798023723" y1="78.04633298489877" y2="78.85096628338864" /><text fill="black" style="font-size:2.4;text-anchor:start;font-family:sans-serif" transform="translate(15.716849798023723 78.85096628338864) rotate(260.739313056) rotate(-90.0) translate(0.0 0.8) " x="0" y="0">530</text><line stroke="black" stroke-width="0.2" x1="20.461736529728093" x2="16.49867545210634" y1="76.7794138647765" y2="77.3217669739586" /><line stroke="black" stroke-width="0.2" x1="20.305625829523677" x2="14.342300929066518" y1="75.51988911163036" y2="76.182275805026" /><text fill="black" style="font-size:2.4;text-anchor:start;font-family:sans-serif" transform="translate(14.342300929066518 76.182275805026) rotate(263.66175352799996) rotate(-90.0) translate(0.0 0.8) " x="0" y="0">540</text><line stroke="black" stroke-width="0.2" x1="20.182530945237737" x2="16.19713342085675" y1="74.26846306974817" y2="74.60994011532802" /><line stroke="black" stroke-width="0.2" x1="20.0916386628045" x2="15.100802529084952" y1="73.025800495064" y2="73.32838054457041" /><text fill="black" style="font-size:2.4;text-anchor:start;font-family:sans-serif" transform="translate(15.100802529084952 73.32838054457041) rotate(266.53056821999996) rotate(-90.0) translate(0.0 0.8) " x="0" y="0">550</text><line stroke="black" stroke-width="0.2" x1="20.032141898622314" x2="16.034713250512098" y1="71.79252803620588" y2="71.93593027910235" /><line stroke="black" stroke-width="0.2" x1="20.003240399066655" x2="14.003629246954652" y1="70.56923580920362" y2="70.63754410630806" /><text fill="black" style="font-size:2.4;text-anchor:start;font-family:sans-serif" transform="translate(14.003629246954652 70.63754410630806) rotate(269.34768972) rotate(-90.0) translate(0.0 0.8) " x="0" y="0">560</text><line stroke="black" stroke-width="0.2" x1="20.00414136542053" x2="16.004472674654174" y1="69.35647891165432" y2="69.30499722458666" /><line stroke="black" stroke-width="0.2" x1="20.034060015393663" x2="15.037466016933024" y1="68.15477875182478" y2="67.97025662700726" /><text fill="black" style="font-size:2.4;text-anchor:start;font-family:sans-serif" transform="translate(15.037466016933024 67.97025662700726) rotate(272.11494805200005) rotate(-90.0) translate(0.0 0.8) " x="0" y="0">570</text><line stroke="black" stroke-width="0.2" x1="20.092220087282506" x2="16.099597694265107" y1="66.96462453990415" y2="66.72179450309649" /><line stroke="black" stroke-width="0.2" x1="20.177854295248196" x2="14.199196810677975" y1="65.7864744720744" y2="65.28085140872332" /><text fill="black" style="font-size:2.4;text-anchor:start;font-family:sans-serif" transform="translate(14.199196810677975 65.28085140872332) rotate(274.834077696) rotate(-90.0) translate(0.0 0.8) " x="0" y="0">580</text><line stroke="black" stroke-width="0.2" x1="20.29020472499652" x2="16.313421102996244" y1="64.62075714275308" y2="64.19041771417332" /><line stroke="black" stroke-width="0.2" x1="20.428523193929742" x2="15.471375513322712" y1="63.467872684550755" y2="62.81465995300583" /><text fill="black" style="font-size:2.4;text-anchor:start;font-family:sans-serif" transform="translate(15.471375513322712 62.81465995300583) rotate(277.50672417600003) rotate(-90.0) translate(0.0 0.8) " x="0" y="0">590</text><line stroke="black" stroke-width="0.2" x1="20.592071567834438" x2="16.63943729326119" y1="62.32819395174738" y2="61.71444946788718" /><line stroke="black" stroke-width="0.2" x1="20.78012202288837" x2="11.920543987008273" y1="61.20206774757605" y2="59.61843994213973" /><text fill="black" style="font-size:2.4;text-anchor:start;font-family:sans-serif" transform="translate(11.920543987008273 59.61843994213973) rotate(280.134450144) rotate(-90.0) translate(0.0 0.8) " x="0" y="0">600</text><line stroke="black" stroke-width="0.2" x1="20.991957285732667" x2="17.071313868591275" y1="60.089815878776605" y2="59.297001149078724" /><line stroke="black" stroke-width="0.2" x1="21.226870833523066" x2="16.34955791687537" y1="58.99173622635446" y2="57.89090984898991" /><text fill="black" style="font-size:2.4;text-anchor:start;font-family:sans-serif" transform="translate(16.34955791687537 57.89090984898991) rotate(282.71874060000005) rotate(-90.0) translate(0.0 0.8) " x="0" y="0">610</text><line stroke="black" stroke-width="0.2" x1="21.484167085493972" x2="17.602900452333486" y1="57.9081036800784" y2="56.94075197448467" /><line stroke="black" stroke-width="0.2" x1="21.76316150409629" x2="13.080530574833624" y1="56.83917130572311" y2="54.47022214075328" /><text fill="black" style="font-size:2.4;text-anchor:start;font-family:sans-serif" transform="translate(13.080530574833624 54.47022214075328) rotate(285.26100822) rotate(-90.0) translate(0.0 0.8) " x="0" y="0">620</text><line stroke="black" stroke-width="0.2" x1="22.063180744966694" x2="18.22823520456403" y1="55.78517113327537" y2="54.64798482393739" /><line stroke="black" stroke-width="0.2" x1="22.383562746953494" x2="17.621919021648843" y1="54.74631509022541" y2="53.22094659924795" /><text fill="black" style="font-size:2.4;text-anchor:start;font-family:sans-serif" transform="translate(17.621919021648843 53.22094659924795) rotate(287.76259782) rotate(-90.0) translate(0.0 0.8) " x="0" y="0">630</text><line stroke="black" stroke-width="0.2" x1="22.723656746910322" x2="18.941549286663154" y1="53.72279604428198" y2="52.420619727824544" /><line stroke="black" stroke-width="0.2" x1="23.08282340592593" x2="14.637731618992596" y1="52.7147883889011" y2="49.6034502989033" /><text fill="black" style="font-size:2.4;text-anchor:start;font-family:sans-serif" transform="translate(14.637731618992596 49.6034502989033) rotate(290.22479064) rotate(-90.0) translate(0.0 0.8) " x="0" y="0">640</text><line stroke="black" stroke-width="0.2" x1="23.46043476690115" x2="19.737269548253238" y1="51.722449072314504" y2="50.260244998099665" /><line stroke="black" stroke-width="0.2" x1="23.85587431374772" x2="19.241461745122493" y1="50.74591823401198" y2="48.82051005741317" /><text fill="black" style="font-size:2.4;text-anchor:start;font-family:sans-serif" transform="translate(19.241461745122493 48.82051005741317) rotate(292.648808376) rotate(-90.0) translate(0.0 0.8) " x="0" y="0">650</text><line stroke="black" stroke-width="0.2" x1="24.26853693229755" x2="20.610019886881354" y1="49.785320044893936" y2="48.16814564848545" /><line stroke="black" stroke-width="0.2" x1="24.69782887338213" x2="16.543438070590916" y1="48.8407634538807" y2="45.03210087557923" /><text fill="black" style="font-size:2.4;text-anchor:start;font-family:sans-serif" transform="translate(16.543438070590916 45.03210087557923) rotate(295.03581678) rotate(-90.0) translate(0.0 0.8) " x="0" y="0">660</text><line stroke="black" stroke-width="0.2" x1="25.143167784045872" x2="21.55462120676954" y1="47.91234273288043" y2="46.145330151510876" /><line stroke="black" stroke-width="0.2" x1="25.60398257257158" x2="21.164380829828737" y1="47.00013833555792" y2="44.70015216911372" /><text fill="black" style="font-size:2.4;text-anchor:start;font-family:sans-serif" transform="translate(21.164380829828737 44.70015216911372) rotate(297.38692897199996) rotate(-90.0) translate(0.0 0.8) " x="0" y="0">670</text><line stroke="black" stroke-width="0.2" x1="26.079713405668393" x2="22.566090478121865" y1="46.10421741244336" y2="44.19255480543882" /><line stroke="black" stroke-width="0.2" x1="26.569811634071492" x2="18.752377728204358" y1="45.22463444265719" y2="40.76506864233549" /><text fill="black" style="font-size:2.4;text-anchor:start;font-family:sans-serif" transform="translate(18.752377728204358 40.76506864233549) rotate(299.703208572) rotate(-90.0) translate(0.0 0.8) " x="0" y="0">680</text><line stroke="black" stroke-width="0.2" x1="27.073739676182804" x2="23.63963885027743" y1="44.36143189232524" y2="42.31034644371125" /><line stroke="black" stroke-width="0.2" x1="27.590970953403954" x2="23.350068048744347" y1="43.51464073634317" y2="40.866104809977486" /><text fill="black" style="font-size:2.4;text-anchor:start;font-family:sans-serif" transform="translate(23.350068048744347 40.866104809977486) rotate(301.985672652) rotate(-90.0) translate(0.0 0.8) " x="0" y="0">690</text><line stroke="black" stroke-width="0.2" x1="28.120989824705063" x2="24.770669010681473" y1="42.684280958804266" y2="40.499023435508605" /><line stroke="black" stroke-width="0.2" x1="28.663291397334362" x2="21.222683848854544" y1="41.87036221530201" y2="36.80702741405638" /><text fill="black" style="font-size:2.4;text-anchor:start;font-family:sans-serif" transform="translate(21.222683848854544 36.80702741405638) rotate(304.23529440000004) rotate(-90.0) translate(0.0 0.8) " x="0" y="0">700</text><line stroke="black" stroke-width="0.2" x1="29.21738151681071" x2="25.954772038155568" y1="41.07288418015672" y2="38.75871491456925" /><line stroke="black" stroke-width="0.2" x1="29.782776565302456" x2="25.7610542218327" y1="40.29183716209273" y2="37.321020878301994" /><text fill="black" style="font-size:2.4;text-anchor:start;font-family:sans-serif" transform="translate(25.7610542218327 37.321020878301994) rotate(306.453005532) rotate(-90.0) translate(0.0 0.8) " x="0" y="0">710</text><line stroke="black" stroke-width="0.2" x1="30.3590034138397" x2="27.187723686946875" y1="39.527202464230044" y2="37.08937866136844" /><line stroke="black" stroke-width="0.2" x1="30.945599226313192" x2="23.915807087049565" y1="38.77895292902156" y2="33.15916445624545" /><text fill="black" style="font-size:2.4;text-anchor:start;font-family:sans-serif" transform="translate(23.915807087049565 33.15916445624545) rotate(308.63969870399995) rotate(-90.0) translate(0.0 0.8) " x="0" y="0">720</text><line stroke="black" stroke-width="0.2" x1="31.542111410535902" x2="28.465480323378777" y1="38.04705326201717" y2="35.490817522978546" /><line stroke="black" stroke-width="0.2" x1="32.14809737353856" x2="28.362907110892422" y1="37.3314605842734" y2="34.06460664270074" /><text fill="black" style="font-size:2.4;text-anchor:start;font-family:sans-serif" transform="translate(28.362907110892422 34.06460664270074) rotate(310.796229636) rotate(-90.0) translate(0.0 0.8) " x="0" y="0">730</text><line stroke="black" stroke-width="0.2" x1="32.76312453223408" x2="29.784174494812802" y1="36.632124649626064" y2="33.96269462159616" /><line stroke="black" stroke-width="0.2" x1="33.386770021224734" x2="26.79638862504519" y1="35.94898840678427" y2="29.819806320005426" /><text fill="black" style="font-size:2.4;text-anchor:start;font-family:sans-serif" transform="translate(26.79638862504519 29.819806320005426) rotate(312.923419092) rotate(-90.0) translate(0.0 0.8) " x="0" y="0">740</text><line stroke="black" stroke-width="0.2" x1="34.018620685290855" x2="31.140110340114127" y1="35.28198821056971" y2="32.50454726741529" /><line stroke="black" stroke-width="0.2" x1="34.65827286537642" x2="31.124100151914064" y1="34.631054254589216" y2="31.094159680048136" /><text fill="black" style="font-size:2.4;text-anchor:start;font-family:sans-serif" transform="translate(31.124100151914064 31.094159680048136) rotate(315.022054824) rotate(-90.0) translate(0.0 0.8) " x="0" y="0">750</text><line stroke="black" stroke-width="0.2" x1="35.30533222067317" x2="32.52975879832703" y1="33.996110936703786" y2="31.115799811640088" /><line stroke="black" stroke-width="0.2" x1="35.9594137084405" x2="29.83210817595979" y1="33.37707705648154" y2="26.784950926648207" /><text fill="black" style="font-size:2.4;text-anchor:start;font-family:sans-serif" transform="translate(29.83210817595979 26.784950926648207) rotate(317.092893228) rotate(-90.0) translate(0.0 0.8) " x="0" y="0">760</text><line stroke="black" stroke-width="0.2" x1="36.62014129639368" x2="33.949752600105185" y1="32.773866264044045" y2="29.795775565167574" /><line stroke="black" stroke-width="0.2" x1="37.28714789852423" x2="34.01586268837665" y1="32.18638727406528" y2="28.40502600147181" /><text fill="black" style="font-size:2.4;text-anchor:start;font-family:sans-serif" transform="translate(34.01586268837665 28.40502600147181) rotate(319.13666107200004) rotate(-90.0) translate(0.0 0.8) " x="0" y="0">770</text><line stroke="black" stroke-width="0.2" x1="37.960075223476885" x2="35.39688124135503" y1="31.614544156481088" y2="28.543707688999575" /><line stroke="black" stroke-width="0.2" x1="38.638573623092356" x2="32.993516875248986" y1="31.058236614069443" y2="24.04871920460195" /><text fill="black" style="font-size:2.4;text-anchor:start;font-family:sans-serif" transform="translate(32.993516875248986 24.04871920460195) rotate(321.154056972) rotate(-90.0) translate(0.0 0.8) " x="0" y="0">780</text><line stroke="black" stroke-width="0.2" x1="39.32230189181897" x2="36.86808604316448" y1="30.51736028602818" y2="27.358749108910416" /><line stroke="black" stroke-width="0.2" x1="40.010927238900784" x2="37.01201996279086" y1="29.991806902466877" y2="25.990987592713566" /><text fill="black" style="font-size:2.4;text-anchor:start;font-family:sans-serif" transform="translate(37.01201996279086 25.990987592713566) rotate(323.145752868) rotate(-90.0) translate(0.0 0.8) " x="0" y="0">790</text><line stroke="black" stroke-width="0.2" x1="40.7041249914613" x2="38.3604549907782" y1="29.48146464290599" y2="26.239981814338478" /><line stroke="black" stroke-width="0.2" x1="41.40157854491741" x2="36.25386268300255" y1="28.986218288513413" y2="21.603737580445824" /><text fill="black" style="font-size:2.4;text-anchor:start;font-family:sans-serif" transform="translate(36.25386268300255 21.603737580445824) rotate(325.11239532) rotate(-90.0) translate(0.0 0.8) " x="0" y="0">800</text><line stroke="black" stroke-width="0.2" x1="42.102979244318846" x2="39.87121758386435" y1="28.505949426970915" y2="25.1864253811286" /><line stroke="black" stroke-width="0.2" x1="42.808026137134505" x2="40.08882875084796" y1="28.04053673554391" y2="23.844590409098302" /><text fill="black" style="font-size:2.4;text-anchor:start;font-family:sans-serif" transform="translate(40.08882875084796 23.844590409098302) rotate(327.054606804) rotate(-90.0) translate(0.0 0.8) " x="0" y="0">810</text><line stroke="black" stroke-width="0.2" x1="43.51642590730957" x2="41.39773997989433" y1="27.589856127608144" y2="24.1970446178168" /><line stroke="black" stroke-width="0.2" x1="44.22789276264503" x2="39.58891345992113" y1="27.153780930561965" y2="19.44146149806312" /><text fill="black" style="font-size:2.4;text-anchor:start;font-family:sans-serif" transform="translate(39.58891345992113 19.44146149806312) rotate(328.972986864) rotate(-90.0) translate(0.0 0.8) " x="0" y="0">820</text><line stroke="black" stroke-width="0.2" x1="44.94214813540375" x2="42.93751998623605" y1="26.73218216812927" y2="23.270756741579618" /><line stroke="black" stroke-width="0.2" x1="45.65892078724205" x2="43.22481286596626" y1="26.324928588973734" y2="21.957421447871127" /><text fill="black" style="font-size:2.4;text-anchor:start;font-family:sans-serif" transform="translate(43.22481286596626 21.957421447871127) rotate(330.86811326400004) rotate(-90.0) translate(0.0 0.8) " x="0" y="0">830</text><line stroke="black" stroke-width="0.2" x1="46.377946404193466" x2="44.48818211652894" y1="25.931886993917658" y2="22.406437953431066" /><line stroke="black" stroke-width="0.2" x1="47.098967681720396" x2="42.976781864430066" y1="25.552922269769937" y2="17.552448278328526" /><text fill="black" style="font-size:2.4;text-anchor:start;font-family:sans-serif" transform="translate(42.976781864430066 17.552448278328526) rotate(332.740542996) rotate(-90.0) translate(0.0 0.8) " x="0" y="0">840</text><line stroke="black" stroke-width="0.2" x1="47.82173402964068" x2="46.04747275201194" y1="25.187897633027717" y2="21.60292944366995" /><line stroke="black" stroke-width="0.2" x1="48.546001611673745" x2="46.40060177284113" y1="24.83667468892824" y2="20.320342157821074" /><text fill="black" style="font-size:2.4;text-anchor:start;font-family:sans-serif" transform="translate(46.40060177284113 20.320342157821074) rotate(334.590813252) rotate(-90.0) translate(0.0 0.8) " x="0" y="0">850</text><line stroke="black" stroke-width="0.2" x1="49.271532995229634" x2="47.613255634848" y1="24.499113683004524" y2="20.859042777644888" /><line stroke="black" stroke-width="0.2" x1="49.99809719661938" x2="46.39775469201087" y1="24.175073548950294" y2="15.926586787761352" /><text fill="black" style="font-size:2.4;text-anchor:start;font-family:sans-serif" transform="translate(46.39775469201087 15.926586787761352) rotate(336.419442432) rotate(-90.0) translate(0.0 0.8) " x="0" y="0">860</text><line stroke="black" stroke-width="0.2" x1="50.7254695045155" x2="49.18350706487674" y1="23.864412064235722" y2="20.173565029374572" /><line stroke="black" stroke-width="0.2" x1="51.45343124517991" x2="49.59877436969789" y1="23.566986018321714" y2="18.923684620153892" /><text fill="black" style="font-size:2.4;text-anchor:start;font-family:sans-serif" transform="translate(49.59877436969789 18.923684620153892) rotate(338.22693093600003) rotate(-90.0) translate(0.0 0.8) " x="0" y="0">870</text><line stroke="black" stroke-width="0.2" x1="52.181769868890996" x2="50.756311458402266" y1="23.282651241804842" y2="19.545263341149223" /><line stroke="black" stroke-width="0.2" x1="52.91027866278871" x2="49.83412882209068" y1="23.011262789723048" y2="14.553290091873208" /><text fill="black" style="font-size:2.4;text-anchor:start;font-family:sans-serif" transform="translate(49.83412882209068 14.553290091873208) rotate(340.013761992) rotate(-90.0) translate(0.0 0.8) " x="0" y="0">880</text><line stroke="black" stroke-width="0.2" x1="53.63875660848366" x2="52.32985713716236" y1="22.75267505261739" y2="18.972889056826787" /><line stroke="black" stroke-width="0.2" x1="54.367008420655296" x2="52.80370926272083" y1="22.506741801807948" y2="17.75741598198873" /><text fill="black" style="font-size:2.4;text-anchor:start;font-family:sans-serif" transform="translate(52.80370926272083 17.75741598198873) rotate(341.780402376) rotate(-90.0) translate(0.0 0.8) " x="0" y="0">890</text><line stroke="black" stroke-width="0.2" x1="55.09484432310061" x2="53.90243186894866" y1="22.273316328835563" y2="18.45518163514241" /><line stroke="black" stroke-width="0.2" x1="55.82207988399817" x2="53.27005426311784" y1="22.052251552504885" y2="13.421656831955758" /><text fill="black" style="font-size:2.4;text-anchor:start;font-family:sans-serif" transform="translate(53.27005426311784 13.421656831955758) rotate(343.527303384) rotate(-90.0) translate(0.0 0.8) " x="0" y="0">900</text><line stroke="black" stroke-width="0.2" x1="56.548536033853146" x2="55.4724189165614" y1="21.84340006637248" y2="17.99087207168229" /><line stroke="black" stroke-width="0.2" x1="57.274038815847284" x2="56.00144269743201" y1="21.646614266016087" y2="16.8112756926177" /><text fill="black" style="font-size:2.4;text-anchor:start;font-family:sans-serif" transform="translate(56.00144269743201 16.8112756926177) rotate(345.254901228) rotate(-90.0) translate(0.0 0.8) " x="0" y="0">910</text><line stroke="black" stroke-width="0.2" x1="57.99841940952828" x2="57.03829296229055" y1="21.46174639183633" y2="17.578686103183244" /><line stroke="black" stroke-width="0.2" x1="58.72151385388057" x2="56.691386347579076" y1="21.288648650937716" y2="12.52060540810649" /><text fill="black" style="font-size:2.4;text-anchor:start;font-family:sans-serif" transform="translate(56.691386347579076 12.52060540810649) rotate(346.963617828) rotate(-90.0) translate(0.0 0.8) " x="0" y="0">920</text><line stroke="black" stroke-width="0.2" x1="59.44316316825481" x2="58.5986162217152" y1="21.127173233913425" y2="17.217347092626497" /><line stroke="black" stroke-width="0.2" x1="60.16321304891328" x2="59.17953435380461" y1="20.977172434885702" y2="16.074889678374277" /><text fill="black" style="font-size:2.4;text-anchor:start;font-family:sans-serif" transform="translate(59.17953435380461 16.074889678374277) rotate(348.653861496) rotate(-90.0) translate(0.0 0.8) " x="0" y="0">930</text><line stroke="black" stroke-width="0.2" x1="60.88151378018102" x2="60.1520348825955" y1="20.838498710281726" y2="16.905578607104275" /><line stroke="black" stroke-width="0.2" x1="61.59792027217694" x2="60.08554592116879" y1="20.711004714568332" y2="11.838985563190647" /><text fill="black" style="font-size:2.4;text-anchor:start;font-family:sans-serif" transform="translate(60.08554592116879 11.838985563190647) rotate(350.326027296) rotate(-90.0) translate(0.0 0.8) " x="0" y="0">940</text><line stroke="black" stroke-width="0.2" x1="62.31229185456715" x2="61.69727520293252" y1="20.594543383643895" y2="16.642106854335395" /><line stroke="black" stroke-width="0.2" x1="63.0244921952542" x2="62.32694141477962" y1="20.488967988276286" y2="15.537864787103913" /><text fill="black" style="font-size:2.4;text-anchor:start;font-family:sans-serif" transform="translate(62.32694141477962 15.537864787103913) rotate(351.980497908) rotate(-90.0) translate(0.0 0.8) " x="0" y="0">950</text><line stroke="black" stroke-width="0.2" x1="63.73438919030878" x2="63.23314032553348" y1="20.394132190017274" y2="16.425662765218647" /><line stroke="black" stroke-width="0.2" x1="64.44185488711406" x2="63.44138876679459" y1="20.30989008963553" y2="11.365670305769925" /><text fill="black" style="font-size:2.4;text-anchor:start;font-family:sans-serif" transform="translate(63.44138876679459 11.365670305769925) rotate(353.61764388) rotate(-90.0) translate(0.0 0.8) " x="0" y="0">960</text><line stroke="black" stroke-width="0.2" x1="65.1467654410835" x2="64.75850667637019" y1="20.236096271331974" y2="16.25498397303855" /><line stroke="black" stroke-width="0.2" x1="65.84900094958958" x2="65.43390104454853" y1="20.172605858990664" y2="15.18986644488973" /><text fill="black" style="font-size:2.4;text-anchor:start;font-family:sans-serif" transform="translate(65.43390104454853 15.18986644488973) rotate(355.237824348) rotate(-90.0) translate(0.0 0.8) " x="0" y="0">970</text><line stroke="black" stroke-width="0.2" x1="66.54844531863195" x2="66.2723209441225" y1="20.11927456139469" y2="16.128816526306267" /><line stroke="black" stroke-width="0.2" x1="67.24498635094032" x2="66.74908389410959" y1="20.075958699305048" y2="11.089631265179946" /><text fill="black" style="font-size:2.4;text-anchor:start;font-family:sans-serif" transform="translate(66.74908389410959 11.089631265179946) rotate(356.841387252) rotate(-90.0) translate(0.0 0.8) " x="0" y="0">980</text><line stroke="black" stroke-width="0.2" x1="67.93851549168784" x2="67.77359673102286" y1="20.04251525925281" y2="16.045916479993025" /><line stroke="black" stroke-width="0.2" x1="68.62892782658903" x2="68.49182060924794" y1="20.018801924170532" y2="15.020682116587594" /><text fill="black" style="font-size:2.4;text-anchor:start;font-family:sans-serif" transform="translate(68.49182060924794 15.020682116587594) rotate(358.42867005600004) rotate(-90.0) translate(0.0 0.8) " x="0" y="0">990</text><line stroke="black" stroke-width="0.2" x1="69.31612195658548" x2="69.26141171311231" y1="20.004677110536278" y2="16.005051279379174" /><line stroke="black" stroke-width="0.2" x1="70.0" x2="70.0" y1="20.0" y2="11.0" /><text fill="black" style="font-size:2.4;text-anchor:start;font-family:sans-serif" transform="translate(70.0 11.0) rotate(0.0) rotate(-90.0) translate(0.0 0.8) " x="0" y="0">1000</text></svg>